<?xml version="1.0" ?>
<!DOCTYPE svg  PUBLIC '-//W3C//DTD SVG 1.1//EN'  'http://www.w3.org/Graphics/SVG/1.1/DTD/svg11.dtd'>
<!-- Uploaded to: SVG Repo, www.svgrepo.com, Generator: SVG Repo Mixer Tools -->
<svg fill="#000000" width="800px" height="800px" viewBox="0 0 512 512" version="1.1" xml:space="preserve" xmlns="http://www.w3.org/2000/svg" xmlns:xlink="http://www.w3.org/1999/xlink">
<g id="_x33_81_x2C__award_x2C__competitive_x2C__cup_x2C__edge_x2C__prize">
<g>
<path d="M343.02,243.365v-72.696c0-1.642,1.327-2.969,2.969-2.969h18.464    c1.628,0,2.97,1.327,2.97,2.969v42.31c0,3.789-0.59,7.481-1.668,10.957c-1.108,3.596-2.762,6.975-4.825,9.992    c-1.737,2.534-3.776,4.852-6.047,6.855c-2.183,1.955-4.622,3.644-7.251,5.043c-0.484,0.314-1.038,0.507-1.643,0.507    C344.347,246.333,343.02,245.006,343.02,243.365 M168.857,170.669v72.696c-0.021,0.459-0.13,0.916-0.361,1.375    c-0.748,1.424-2.534,2.004-3.98,1.231c-2.741-1.424-5.275-3.187-7.531-5.188c-2.271-2.027-4.31-4.321-6.033-6.855    c-2.078-3.018-3.716-6.396-4.829-9.992c-1.084-3.476-1.664-7.168-1.664-10.957v-42.31c0-1.642,1.327-2.969,2.969-2.969h18.463    C167.52,167.7,168.857,169.027,168.857,170.669z M348.958,173.637v64.346c0.677-0.506,1.351-1.063,1.979-1.617    c1.93-1.713,3.656-3.668,5.092-5.768c1.752-2.559,3.138-5.406,4.068-8.399c0.904-2.896,1.386-6.011,1.386-9.22v-39.342H348.958z     M323.289,412.385h-31.93h-0.038h-0.035h-0.035h-35.239h-0.074h-0.07h-35.313h-0.07h-31.895v8.399h72.295    c1.629,0,2.969,1.327,2.969,2.969c0,1.617-1.34,2.969-2.969,2.969h-72.295v13.516h134.698V412.385z M337.506,446.175h-11.174    h-0.074H185.622h-0.074h-11.174v7.457h163.131V446.175z M162.923,237.982v-64.346h-12.529v39.342c0,3.209,0.484,6.324,1.375,9.22    c0.93,2.993,2.32,5.841,4.067,8.399c1.436,2.1,3.162,4.055,5.092,5.768C161.572,236.92,162.235,237.477,162.923,237.982z     M192.487,175.424c-1.639,0-2.969-1.328-2.969-2.945c0-1.641,1.33-2.969,2.969-2.969h130.417c1.628,0,2.97,1.328,2.97,2.969    c0,1.617-1.342,2.945-2.97,2.945H192.487z M393.753,225.094c0-1.641,1.341-2.969,2.97-2.969c1.643,0,2.969,1.328,2.969,2.969    c0,6.18-1.039,12.141-2.934,17.74c-1.966,5.793-4.865,11.15-8.508,15.905c-3.498,4.562-7.699,8.592-12.43,11.899    c-4.139,2.896-8.69,5.236-13.516,6.926c-0.99,8.713-3.187,17.063-6.419,24.884l-0.06,0.121    c-3.587,8.616-8.438,16.581-14.277,23.652c-5.938,7.192-12.975,13.491-20.828,18.656c-7.725,5.069-16.246,9.052-25.297,11.634    c-1.568,0.459-3.208-0.459-3.643-2.027c-0.46-1.568,0.459-3.21,2.028-3.645c8.493-2.462,16.46-6.154,23.665-10.885    c7.324-4.827,13.911-10.74,19.512-17.498c5.49-6.638,10.017-14.096,13.372-22.133l0.06-0.145    c3.246-7.869,5.395-16.291,6.19-25.053c0.099-1.158,0.892-2.22,2.074-2.582c4.948-1.545,9.595-3.838,13.757-6.734    c4.215-2.969,7.967-6.564,11.104-10.645c3.257-4.271,5.864-9.074,7.602-14.239C392.838,235.979,393.753,230.646,393.753,225.094z     M149.32,136.059c1.632,0,2.969,1.352,2.969,2.969c0,1.641-1.337,2.969-2.969,2.969h-31.073v50.347    c0,1.641-1.327,2.968-2.969,2.968s-2.969-1.327-2.969-2.968v-53.315c0-1.617,1.327-2.969,2.969-2.969H149.32z M140.887,472.893    c-1.643,0-2.969-1.352-2.969-2.969c0-1.642,1.327-2.969,2.969-2.969h175.584c1.643,0,2.969,1.327,2.969,2.969    c0,1.617-1.326,2.969-2.969,2.969H140.887z M243.705,485.999c-1.632,0-2.969-1.328-2.969-2.97c0-1.617,1.337-2.944,2.969-2.944    h121.52c1.629,0,2.969,1.327,2.969,2.944c0,1.642-1.34,2.97-2.969,2.97H243.705z M377.655,485.999c-1.643,0-2.97-1.328-2.97-2.97    c0-1.617,1.327-2.944,2.97-2.944h15.192c1.629,0,2.959,1.327,2.959,2.944c0,1.642-1.33,2.97-2.959,2.97H377.655z M123.918,485.611    c-1.639,0-2.969-1.327-2.969-2.968c0-1.642,1.33-2.969,2.969-2.969h57.577c1.628,0,2.969,1.327,2.969,2.969    c0,1.641-1.34,2.968-2.969,2.968H123.918z M343.02,125.318h-45.156V50.402l7.77,5.381c1.33,0.918,3.176,0.58,4.106-0.747    c0.916-1.353,0.579-3.186-0.751-4.104l-12.259-8.519l-0.074-0.049l-0.049-0.024l-0.024-0.024l-0.035-0.023l-0.035-0.024    l-0.024-0.024l-0.035-0.023h-0.024l-0.039-0.025l-0.021-0.023l-0.05-0.024h-0.024l-0.049-0.023l-0.011-0.024l-0.049-0.023h-0.011    l-0.049-0.025h-0.024l-0.05-0.023h-0.011l-0.06-0.024l0,0l-0.063-0.024h-0.011l-0.06-0.023h-0.015l-0.06-0.025l0,0l-0.06-0.023    l-0.073-0.024l-0.07-0.023l0,0h-0.074l0,0l-0.073-0.024l0,0h-0.07l0,0l-0.06-0.023h-0.014h-0.06h-0.015h-0.06h-0.011h-0.049    l-0.011-0.025h-0.063h-0.01h-0.06h-0.015h-0.06h-0.011h-0.06l0,0h-0.073v0.025h-0.074l0,0h-0.07l0,0h-0.073l0,0l-0.073,0.023l0,0    h-0.07l0,0l-0.074,0.024l0,0h-0.06h-0.011l-0.063,0.023l-0.07,0.024l-0.06,0.023l0,0l-0.074,0.025l0,0l-0.073,0.023l0,0    l-0.06,0.024h-0.011l-0.049,0.024h-0.015l-0.06,0.023h-0.011l-0.06,0.025l0,0l-0.049,0.023l-0.024,0.024l-0.05,0.023h-0.024    l-0.035,0.024l-0.024,0.023l-0.035,0.025h-0.024l-0.035,0.023l-0.038,0.024l-0.025,0.024l-0.035,0.023l-0.024,0.024l-0.06,0.024    l-0.06,0.049l-12.262,8.519c-1.338,0.918-1.678,2.751-0.748,4.104c0.931,1.327,2.762,1.665,4.117,0.747l7.745-5.381v74.916    h-33.018V34.617l7.76,5.383c1.341,0.916,3.187,0.579,4.116-0.748c0.916-1.352,0.579-3.186-0.761-4.104l-12.259-8.52L257.7,26.58    l-0.046-0.024l-0.038-0.023l-0.035-0.024l-0.024-0.023l-0.025-0.025l-0.049-0.023h-0.021l-0.039-0.024l-0.011-0.024l-0.049-0.023    h-0.024l-0.05-0.023l-0.01-0.025l-0.05-0.023h-0.01l-0.06-0.025h-0.015l-0.049-0.023h-0.011l-0.06-0.023l0,0l-0.074-0.024l0,0    l-0.07-0.048l0,0h-0.063h-0.01l-0.06-0.025l-0.074-0.023l-0.06-0.024l0,0h-0.074l0,0l-0.07-0.023l0,0h-0.074l0,0l-0.074-0.024l0,0    h-0.07l0,0h-0.06h-0.014l-0.06-0.023h-0.014h-0.06h-0.01h-0.06h-0.014h-0.049h-0.011h-0.06h-0.014h-0.06h-0.01l-0.06,0.023h-0.014    h-0.06h-0.014h-0.06l0,0l-0.07,0.024l0,0h-0.074l0,0l-0.074,0.023l0,0h-0.07l0,0l-0.06,0.024l-0.074,0.023l-0.06,0.025h-0.014    h-0.06l0,0l-0.074,0.048l0,0l-0.07,0.024l0,0l-0.06,0.023h-0.014l-0.049,0.023h-0.021l-0.049,0.025h-0.014l-0.045,0.023    l-0.014,0.025l-0.049,0.023h-0.021l-0.049,0.023l-0.014,0.024l-0.035,0.024h-0.024l-0.049,0.023l-0.021,0.025l-0.024,0.023    l-0.039,0.024l-0.035,0.023l-0.049,0.024l-0.06,0.049l-12.262,8.52c-1.337,0.918-1.674,2.752-0.758,4.104    c0.93,1.327,2.776,1.664,4.113,0.748l7.76-5.383v90.701h-33.018V74.803l7.76,5.383c1.34,0.941,3.176,0.603,4.106-0.748    c0.926-1.328,0.589-3.186-0.751-4.104l-12.259-8.52l-0.06-0.025l-0.063-0.048l-0.035-0.023l-0.025-0.024l-0.024-0.023h-0.035    l-0.035-0.049h-0.024l-0.049-0.024l-0.01-0.024l-0.039-0.023h-0.025l-0.045-0.023h-0.024l-0.049-0.025v-0.023l-0.06-0.025h-0.014    l-0.06-0.023h-0.011l-0.049-0.023h-0.011l-0.063-0.024l0,0l-0.07-0.024l0,0l-0.074-0.023l0,0l-0.074-0.025l-0.06-0.023h-0.06    h-0.011l-0.063-0.024h-0.011l-0.06-0.023l0,0h-0.074l0,0h-0.07v-0.024h-0.074l0,0h-0.074l0,0h-0.06h-0.01h-0.074v-0.023h-0.06    h-0.014h-0.06h-0.011h-0.06l-0.014,0.023h-0.06h-0.011h-0.049h-0.014h-0.06h-0.011h-0.06l-0.014,0.024h-0.06l0,0h-0.074l0,0    l-0.07,0.023l0,0l-0.073,0.024l0,0h-0.074l-0.07,0.023l-0.06,0.025l0,0l-0.074,0.023l0,0l-0.06,0.024h-0.014l-0.06,0.024l0,0    l-0.074,0.023l0,0l-0.046,0.023h-0.024l-0.049,0.025l-0.01,0.023l-0.063,0.025h-0.01l-0.035,0.023h-0.024l-0.049,0.023    l-0.024,0.024l-0.035,0.024h-0.025l-0.035,0.049h-0.025l-0.039,0.023l-0.035,0.024l-0.024,0.023l-0.045,0.048l-0.074,0.025    l-12.262,8.52c-1.337,0.918-1.664,2.775-0.748,4.104c0.916,1.351,2.776,1.689,4.103,0.748l7.773-5.383v50.516h-45.16v25.56    c0,1.642-1.337,2.968-2.966,2.968h-33.838v60.58c0,5.552,0.93,10.885,2.604,15.857c1.765,5.165,4.345,9.968,7.605,14.217    c3.138,4.102,6.903,7.698,11.125,10.666c4.151,2.897,8.784,5.189,13.732,6.711c1.112,0.361,1.979,1.327,2.078,2.559    c0.807,8.785,2.944,17.232,6.201,25.101c3.355,8.085,7.917,15.592,13.445,22.276c5.573,6.734,12.164,12.647,19.523,17.475    c7.244,4.754,15.207,8.447,23.689,10.885c1.028,0.289,1.846,1.135,2.088,2.244c1.113,5.262,1.558,10.572,1.425,15.881    c-0.133,5.262-0.846,10.5-2.014,15.737l-0.014,0.048c-1.229,5.504-2.969,11.006-5.092,16.484    c-2.063,5.334-4.489,10.62-7.131,15.905h31.652V286.881c0-1.642,1.33-2.969,2.969-2.969c1.643,0,2.969,1.327,2.969,2.969v119.591    h31.582c-2.632-5.116-5.032-10.257-7.071-15.397c-2.138-5.431-3.899-10.91-5.142-16.412c-1.169-5.238-1.881-10.547-2.004-15.93    c-0.119-5.407,0.341-10.837,1.509-16.34c0.218-1.038,0.99-1.906,2.078-2.221c8.493-2.462,16.459-6.154,23.675-10.885    c7.325-4.827,13.901-10.74,19.503-17.498c5.527-6.686,10.09-14.191,13.431-22.277c3.246-7.844,5.394-16.268,6.19-25.053    c0.099-1.158,0.892-2.221,2.074-2.582c4.963-1.545,9.596-3.838,13.758-6.734c4.215-2.944,7.977-6.564,11.104-10.643    c3.271-4.272,5.864-9.052,7.615-14.217c1.688-4.973,2.604-10.306,2.604-15.857v-60.58h-33.825c-1.642,0-2.969-1.326-2.969-2.968    V125.318z" style="fill-rule:evenodd;clip-rule:evenodd;"/>
</g>
</g>
<g id="Layer_1"/>
</svg>