<?xml version="1.0" encoding="iso-8859-1"?>
<!-- Uploaded to: SVG Repo, www.svgrepo.com, Generator: SVG Repo Mixer Tools -->
<svg fill="#000000" height="800px" width="800px" version="1.1" id="Layer_1" xmlns="http://www.w3.org/2000/svg" xmlns:xlink="http://www.w3.org/1999/xlink" 
	 viewBox="0 0 512 512" xml:space="preserve">
<g>
	<g>
		<g>
			<path d="M500.39,434.213H358.075c16.244-12.442,29.048-29.233,36.609-48.775c64.453-4.308,115.575-58.109,115.575-123.635V249.89
				c0-6.412-5.199-11.61-11.61-11.61h-82.686l3.51-29.07c0.398-3.297-0.635-6.608-2.839-9.094c-2.202-2.486-5.365-3.908-8.687-3.908
				H87.8c-3.322,0-6.484,1.422-8.687,3.908c-2.204,2.486-3.237,5.796-2.839,9.094l18.004,149.116
				c3.756,31.115,20.034,57.995,43.393,75.887H11.61c-6.411,0-11.61,5.198-11.61,11.61c0,35.21,28.645,63.855,63.855,63.855h384.29
				c35.21,0,63.855-28.645,63.855-63.855C512,439.41,506.801,434.213,500.39,434.213z M401.467,358.326l11.69-96.826h73.881v0.303
				c0,50.541-37.427,92.499-86.02,99.629C401.173,360.399,401.342,359.37,401.467,358.326z M117.33,355.542l-16.434-136.114h293.952
				l-16.433,136.114c-5.414,44.849-43.563,78.67-88.739,78.67h-83.608C160.893,434.213,122.744,400.391,117.33,355.542z
				 M448.145,486.457H63.855c-18.373,0-33.937-12.258-38.946-29.025h462.182C482.082,474.2,466.518,486.457,448.145,486.457z"/>
			<path d="M291.287,281.503l42.457,36.299l-42.457,36.3c-4.874,4.166-5.446,11.495-1.279,16.368
				c2.296,2.687,5.552,4.066,8.829,4.066c2.669,0,5.351-0.916,7.538-2.785l52.779-45.123c2.581-2.206,4.066-5.43,4.066-8.825
				s-1.485-6.619-4.066-8.825l-52.779-45.123c-4.872-4.167-12.202-3.593-16.369,1.281
				C285.84,270.008,286.412,277.336,291.287,281.503z"/>
			<path d="M196.908,374.534c3.276,0,6.534-1.379,8.829-4.066c4.167-4.874,3.594-12.202-1.281-16.369L162,317.799l42.457-36.299
				c4.876-4.166,5.449-11.494,1.282-16.368c-4.166-4.874-11.495-5.447-16.369-1.281l-52.779,45.123
				c-2.581,2.206-4.066,5.43-4.066,8.825s1.485,6.619,4.066,8.825l52.779,45.123C191.557,373.619,194.238,374.534,196.908,374.534z"
				/>
			<path d="M263.347,270.273c1.193,0.388,2.403,0.572,3.594,0.572c4.892,0,9.442-3.117,11.039-8.021l0.773-2.377
				c1.983-6.096-1.351-12.648-7.449-14.632c-6.099-1.983-12.648,1.351-14.633,7.449l-0.773,2.377
				C253.915,261.738,257.249,268.29,263.347,270.273z"/>
			<path d="M224.441,389.788c1.193,0.389,2.406,0.574,3.597,0.574c4.891,0,9.441-3.116,11.038-8.019l21.214-65.173
				c1.984-6.099-1.35-12.65-7.447-14.634c-6.101-1.985-12.65,1.349-14.633,7.447l-21.214,65.173
				C215.01,381.251,218.344,387.804,224.441,389.788z"/>
			<path d="M224.653,161.378c0,6.412,5.199,11.61,11.61,11.61c6.411,0,11.61-5.198,11.61-11.61c0-7.668,3.175-11.029,8.439-16.599
				c6.238-6.601,14.781-15.642,14.781-32.546c0-16.905-8.543-25.947-14.781-32.549c-5.262-5.569-8.439-8.932-8.439-16.602
				s3.176-11.033,8.439-16.602c6.238-6.601,14.781-15.643,14.781-32.549c0-6.412-5.199-11.61-11.61-11.61
				c-6.411,0-11.61,5.198-11.61,11.61c0,7.671-3.177,11.033-8.439,16.602c-6.238,6.603-14.781,15.644-14.781,32.549
				s8.543,25.947,14.781,32.549c5.262,5.569,8.439,8.932,8.439,16.602c0,7.668-3.175,11.029-8.439,16.599
				C233.196,135.433,224.653,144.474,224.653,161.378z"/>
			<path d="M298.833,172.988c6.411,0,11.61-5.198,11.61-11.61c0-7.668,3.175-11.029,8.439-16.599
				c6.238-6.601,14.781-15.642,14.781-32.546c0-6.412-5.199-11.61-11.61-11.61c-6.411,0-11.61,5.198-11.61,11.61
				c0,7.668-3.175,11.029-8.439,16.599c-6.238,6.601-14.781,15.642-14.781,32.546C287.223,167.79,292.42,172.988,298.833,172.988z"
				/>
		</g>
	</g>
</g>
</svg>